<svg width="244" height="89" viewBox="0 0 244 89" fill="none" xmlns="http://www.w3.org/2000/svg">
<g clip-path="url(#clip0_36_52)">
<path fill-rule="evenodd" clip-rule="evenodd" d="M0 38.3328C0 35.4089 1.00504 32.5739 2.84667 30.3029C5.89667 26.7925 11.59 19.7718 17.4867 26.7925C23.18 33.8133 29.0767 54.8755 34.77 61.8963C40.6667 68.917 46.5633 61.8963 52.2567 51.3651C58.1533 40.834 63.8467 26.7925 69.7433 28.5477C75.4367 30.3029 81.3333 47.8548 87.23 44.3444C92.9233 40.834 98.82 16.2614 104.513 9.24066C110.41 2.21992 116.103 12.751 122 25.0373C127.897 37.3237 133.59 51.3651 139.487 51.3651C145.18 51.3651 151.077 37.3236 156.77 33.8133C162.667 30.3029 168.563 37.3236 174.257 33.8133C180.153 30.3029 185.847 16.2614 191.743 9.24066C197.437 2.21992 203.333 2.21992 209.23 3.9751C214.923 5.73029 220.82 9.24066 226.513 12.751C232.41 16.2614 238.103 19.7718 241.153 21.527C242.923 22.6179 244 24.5479 244 26.6264V94.1533C244 95.7255 242.726 97 241.153 97C238.103 97 232.41 97 226.513 97C220.82 97 214.923 97 209.23 97C203.333 97 197.437 97 191.743 97C185.847 97 180.153 97 174.257 97C168.563 97 162.667 97 156.77 97C151.077 97 145.18 97 139.487 97C133.59 97 127.897 97 122 97C116.103 97 110.41 97 104.513 97C98.82 97 92.9233 97 87.23 97C81.3333 97 75.4367 97 69.7433 97C63.8467 97 58.1533 97 52.2567 97C46.5633 97 40.6667 97 34.77 97C29.0767 97 23.18 97 17.4867 97C11.59 97 5.89667 97 2.84667 97C1.2745 97 0 95.7255 0 94.1533V38.3328Z" fill="#820305" stroke="#B00104"/>
</g>
<defs>
<clipPath id="clip0_36_52">
<path d="M0 0H244V69C244 80.0457 235.046 89 224 89H20C8.95431 89 0 80.0457 0 69V0Z" fill="white"/>
</clipPath>
</defs>
</svg>
