<svg width="19" height="19" viewBox="0 0 19 19" fill="none" xmlns="http://www.w3.org/2000/svg">
<g clip-path="url(#clip0_465_6)">
<path d="M5.37818 0H13.1673C16.1345 0 18.5455 2.41091 18.5455 5.37818V13.1673C18.5455 14.5937 17.9788 15.9616 16.9702 16.9702C15.9616 17.9788 14.5937 18.5455 13.1673 18.5455H5.37818C2.41091 18.5455 0 16.1345 0 13.1673V5.37818C0 3.9518 0.566628 2.58384 1.57523 1.57523C2.58384 0.566628 3.9518 0 5.37818 0ZM5.19273 1.85455C4.30739 1.85455 3.45831 2.20625 2.83228 2.83228C2.20625 3.45831 1.85455 4.30739 1.85455 5.19273V13.3527C1.85455 15.198 3.34745 16.6909 5.19273 16.6909H13.3527C14.2381 16.6909 15.0871 16.3392 15.7132 15.7132C16.3392 15.0871 16.6909 14.2381 16.6909 13.3527V5.19273C16.6909 3.34745 15.198 1.85455 13.3527 1.85455H5.19273ZM14.1409 3.24545C14.4483 3.24545 14.7431 3.36757 14.9605 3.58494C15.1779 3.80232 15.3 4.09714 15.3 4.40455C15.3 4.71196 15.1779 5.00678 14.9605 5.22415C14.7431 5.44152 14.4483 5.56364 14.1409 5.56364C13.8335 5.56364 13.5387 5.44152 13.3213 5.22415C13.1039 5.00678 12.9818 4.71196 12.9818 4.40455C12.9818 4.09714 13.1039 3.80232 13.3213 3.58494C13.5387 3.36757 13.8335 3.24545 14.1409 3.24545ZM9.27273 4.63636C10.5024 4.63636 11.6816 5.12484 12.5511 5.99432C13.4206 6.86381 13.9091 8.04309 13.9091 9.27273C13.9091 10.5024 13.4206 11.6816 12.5511 12.5511C11.6816 13.4206 10.5024 13.9091 9.27273 13.9091C8.04309 13.9091 6.86381 13.4206 5.99432 12.5511C5.12484 11.6816 4.63636 10.5024 4.63636 9.27273C4.63636 8.04309 5.12484 6.86381 5.99432 5.99432C6.86381 5.12484 8.04309 4.63636 9.27273 4.63636ZM9.27273 6.49091C8.53494 6.49091 7.82738 6.78399 7.30568 7.30568C6.78399 7.82738 6.49091 8.53494 6.49091 9.27273C6.49091 10.0105 6.78399 10.7181 7.30568 11.2398C7.82738 11.7615 8.53494 12.0545 9.27273 12.0545C10.0105 12.0545 10.7181 11.7615 11.2398 11.2398C11.7615 10.7181 12.0545 10.0105 12.0545 9.27273C12.0545 8.53494 11.7615 7.82738 11.2398 7.30568C10.7181 6.78399 10.0105 6.49091 9.27273 6.49091Z" fill="black"/>
</g>
<defs>
<clipPath id="clip0_465_6">
<rect width="18.5455" height="18.5455" fill="white"/>
</clipPath>
</defs>
</svg>
