<svg width="17" height="17" viewBox="0 0 17 17" fill="none" xmlns="http://www.w3.org/2000/svg">
<g clip-path="url(#clip0_465_12)">
<path d="M3.45957 1.83246C3.45934 2.31822 3.27688 2.78399 2.95232 3.1273C2.62776 3.47061 2.18769 3.66334 1.72892 3.6631C1.27015 3.66285 0.830266 3.46965 0.506031 3.126C0.181795 2.78235 -0.000229167 2.31639 2.16536e-07 1.83063C0.0002296 1.34488 0.182694 0.879111 0.507254 0.535801C0.831814 0.19249 1.27188 -0.000242649 1.73065 2.29275e-07C2.18942 0.000243108 2.6293 0.193442 2.95354 0.537096C3.27777 0.880749 3.4598 1.34671 3.45957 1.83246ZM3.51146 5.01936H0.0518937V16.4848H3.51146V5.01936ZM8.97758 5.01936H5.53531V16.4848H8.94299V10.4682C8.94299 7.11648 13.0685 6.80512 13.0685 10.4682V16.4848H16.4848V9.22276C16.4848 3.57243 10.3787 3.78306 8.94299 6.55786L8.97758 5.01936Z" fill="black"/>
</g>
<defs>
<clipPath id="clip0_465_12">
<rect width="16.4848" height="16.4848" fill="white"/>
</clipPath>
</defs>
</svg>
